<svg width="36" height="36" viewBox="0 0 36 36" fill="none" xmlns="http://www.w3.org/2000/svg">
<g id="teenyicons:password-outline" clip-path="url(#clip0_409_20)">
<path id="Vector" d="M30 20.4V18C30 17.3634 29.7471 16.753 29.2971 16.3029C28.847 15.8528 28.2365 15.6 27.6 15.6H3.6C2.96348 15.6 2.35303 15.8528 1.90294 16.3029C1.45286 16.753 1.2 17.3634 1.2 18V32.4C1.2 33.0365 1.45286 33.6469 1.90294 34.097C2.35303 34.5471 2.96348 34.8 3.6 34.8H27.6C28.2365 34.8 28.847 34.5471 29.2971 34.097C29.7471 33.6469 30 33.0365 30 32.4V30M30 20.4H20.4C19.127 20.4 17.9061 20.9057 17.0059 21.8058C16.1057 22.706 15.6 23.9269 15.6 25.2C15.6 26.473 16.1057 27.6939 17.0059 28.5941C17.9061 29.4942 19.127 30 20.4 30H30M30 20.4C31.273 20.4 32.4939 20.9057 33.3941 21.8058C34.2943 22.706 34.8 23.9269 34.8 25.2C34.8 26.473 34.2943 27.6939 33.3941 28.5941C32.4939 29.4942 31.273 30 30 30M8.4 15.6V8.39995C8.4 6.49039 9.15857 4.65904 10.5088 3.30878C11.8591 1.95852 13.6904 1.19995 15.6 1.19995C17.5096 1.19995 19.3409 1.95852 20.6912 3.30878C22.0414 4.65904 22.8 6.49039 22.8 8.39995V15.6M28.8 25.2H31.2M24 25.2H26.4M19.2 25.2H21.6" stroke="#444444" stroke-width="2"/>
</g>
<defs>
<clipPath id="clip0_409_20">
<rect width="36" height="36" fill="white"/>
</clipPath>
</defs>
</svg>
